HIERARCHY
ROOT pelvis
{
  OFFSET 0 100 0
  CHANNELS 6 Xposition Yposition Zposition Zrotation Xrotation Yrotation
  JOINT pelvis_right_femur
  {
    OFFSET -10.78128 -3.44521 -0.5502486
    CHANNELS 3 Zrotation Xrotation Yrotation
    JOINT right_femur_tibia
    {
      OFFSET -0.8047443 -44.0398 -0.1307829
      CHANNELS 3 Zrotation Xrotation Yrotation
      JOINT right_tibia_foot
      {
        OFFSET 3.006224 -47.83518 -5
        CHANNELS 3 Zrotation Xrotation Yrotation
        End Site
        {
          OFFSET 0 -5 15
        }
      }
    }
  }
  JOINT pelvis_left_femur
  {
    OFFSET 10.78128 -3.44521 -0.5502486
    CHANNELS 3 Zrotation Xrotation Yrotation
    JOINT left_femur_tibia
    {
      OFFSET 0.8047443 -44.0398 -0.1307829
      CHANNELS 3 Zrotation Xrotation Yrotation
      JOINT left_tibia_foot
      {
        OFFSET -4.370144 -48.10324 -4.275266
        CHANNELS 3 Zrotation Xrotation Yrotation
        End Site
        {
          OFFSET 0 -5 15
        }
      }
    }
  }
  JOINT pelvis_spine1
  {
    OFFSET 0 6.468898 -3.129235
    CHANNELS 3 Zrotation Xrotation Yrotation
    JOINT spine1
    {
      OFFSET 0 23.15396 4.99043
      CHANNELS 3 Zrotation Xrotation Yrotation
      JOINT spine2
      {
        OFFSET 0 20.79997 -5.064912
        CHANNELS 3 Zrotation Xrotation Yrotation
        JOINT neck
        {
          OFFSET 0 14.38658 9.616178
          CHANNELS 3 Zrotation Xrotation Yrotation
          End Site
          {
            OFFSET 0 20 0
          }
        }
      }
      JOINT right_manubrium
      {
        OFFSET -5.722621 16.35077 3.967754
        CHANNELS 3 Zrotation Xrotation Yrotation
        JOINT right_clavicle
        {
          OFFSET -13.16364 1.694482 -4.693211
          CHANNELS 3 Zrotation Xrotation Yrotation
          JOINT right_humerus
          {
            OFFSET -28.5034 -0.3100689 -2.792744
            CHANNELS 3 Zrotation Xrotation Yrotation
            JOINT right_radius
            {
              OFFSET -25.15693 0.02248979 -1.271978
              CHANNELS 3 Zrotation Xrotation Yrotation
              End Site
              {
                OFFSET -15 0 0
              }
            }
          }
        }
      }
      JOINT left_manubrium
      {
        OFFSET 5.722621 16.35077 3.967754
        CHANNELS 3 Zrotation Xrotation Yrotation
        JOINT left_clavicle
        {
          OFFSET 13.16364 1.694482 -4.693211
          CHANNELS 3 Zrotation Xrotation Yrotation
          JOINT left_humerus
          {
            OFFSET 29.39168 -1.063119 -2.237045
            CHANNELS 3 Zrotation Xrotation Yrotation
            JOINT left_radius
            {
              OFFSET 24.59957 -0.9528479 0.9047498
              CHANNELS 3 Zrotation Xrotation Yrotation
              End Site
              {
                OFFSET 15 -0 -0
              }
            }
          }
        }
      }
    }
  }
}
MOTION
Frames: 19
Frame Time: 0.0416666666667
50.07847 103.2977 271.7023 3.524201 -9.730583 2.133783 -2.107966 9.844332 4.908066 -0 42.84885 -0 5.819575 -9.642885 -4.075182 -6.041587 -6.670216 -9.404092 -0 23.30394 -0 -6.890341 -10.48112 17.47994 -2.517028 -1.101783 7.00717 -1.827318 8.760916 -3.092861 2.159094 23.10344 5.812556 1.185685 -14.83703 8.511335 1.181678 -18.10719 9.906097 85.58345 21.4339 -11.55863 -0 0 20.80656 -24.48917 13.5618 11.95104 4.43046 -13.90882 -3.865677 -90.13767 25.36092 19.54049 0 0 -10.91733 -3.631173 6.532216 17.17375
51.10708 103.951 277.6741 3.568716 -9.832733 3.099248 -2.112274 4.590969 4.113315 -0 43.67718 -0 5.107325 -9.191792 -5.085658 -6.434236 -1.74974 -9.814564 -0 22.22173 -0 -6.735138 -11.8003 16.80703 -2.640601 -0.8545042 5.988477 -1.571303 8.606372 -3.727819 2.162896 23.40053 5.86884 1.002308 -14.66139 8.776367 1.206375 -17.10403 9.622734 86.80392 21.75193 -13.09895 -0 0 18.93532 -23.66313 13.53244 11.37438 4.538811 -14.72206 -4.118609 -88.29623 25.77522 16.36721 0 0 -12.52514 -2.985059 6.978742 16.3486
52.04789 104.3983 283.4404 3.593025 -9.750665 4.180451 -2.111784 -0.8633349 3.430344 -0 42.03621 -0 4.276382 -8.931966 -6.003772 -6.60765 3.044247 -10.11463 -0 20.95423 -0 -6.646755 -13.1415 16.084 -2.740284 -0.6134802 4.947753 -1.258672 8.390592 -4.455348 2.219861 23.654 5.87592 0.8560447 -14.50418 9.013886 1.054909 -16.07834 9.299632 88.02663 22.05419 -14.71618 -0 0 17.11011 -22.78848 13.4587 10.77814 4.764346 -15.6583 -4.361296 -86.36765 26.08828 12.89195 0 0 -14.48683 -2.233931 7.489565 15.33991
52.89951 104.5183 289.0879 3.595309 -9.505823 5.311309 -2.095674 -6.134469 2.867302 -0 38.38507 -0 3.352226 -8.855719 -6.805341 -6.604081 7.530399 -10.32876 -0 19.76603 -0 -6.637689 -14.42356 15.34846 -2.81737 -0.4086518 3.962886 -0.9123771 8.119754 -5.19846 2.328564 23.85237 5.824728 0.7511406 -14.39199 9.20614 0.7731303 -15.06013 8.963602 89.19506 22.32257 -16.32802 -0 0 15.33305 -21.87455 13.33796 10.15258 5.074951 -16.65035 -4.55707 -84.47753 26.28287 9.336438 0 0 -16.64224 -1.406961 8.044127 14.19922
53.65992 104.2865 294.7104 3.578914 -9.160486 6.418627 -2.029266 -10.81016 2.417527 -0 33.56653 -0 2.353291 -8.961829 -7.490092 -6.476456 11.55761 -10.46725 -0 19.06479 -0 -6.712258 -15.55441 14.65782 -2.86845 -0.2561992 3.118001 -0.5595511 7.818973 -5.855032 2.474667 23.99432 5.71136 0.6862876 -14.35349 9.330979 0.4500334 -14.07742 8.658876 90.25791 22.55486 -17.85389 -0 0 13.54994 -20.91803 13.17595 9.470458 5.418431 -17.62966 -4.665917 -82.75474 26.36569 5.95445 0 0 -18.79551 -0.536286 8.621304 12.98835
54.32749 103.7614 300.3959 3.543447 -8.784334 7.426627 -1.871183 -14.5864 2.083538 -0 28.38975 -0 1.298082 -9.234002 -8.065295 -6.26734 15.01219 -10.53381 -0 19.18413 -0 -6.862958 -16.44948 14.0692 -2.8871 -0.1611774 2.465499 -0.2213557 7.518192 -6.3525 2.641411 24.0883 5.538658 0.6572565 -14.40374 9.374763 0.1602695 -13.15875 8.417289 91.17894 22.75758 -19.22575 -0 0 11.72802 -19.92104 12.97904 8.719245 5.747383 -18.53496 -4.665229 -81.29836 26.36581 2.956923 0 0 -20.77147 0.345372 9.202185 11.76736
54.90401 103.052 306.2144 3.476564 -8.45271 8.267168 -1.571329 -17.27134 1.89829 -0 23.53871 -0 0.2141458 -9.619714 -8.529654 -5.994768 17.77414 -10.5337 -0 20.34671 -0 -7.069718 -17.00779 13.64846 -2.859011 -0.1194564 2.00941 0.08792826 7.250682 -6.670676 2.813129 24.15757 5.317365 0.6581107 -14.53591 9.337386 -0.05783509 -12.34493 8.246719 91.93373 22.94056 -20.37163 -0 0 9.909929 -18.90336 12.75137 7.923034 6.022002 -19.29843 -4.558523 -80.19337 26.3273 0.5210653 0 0 -22.40037 1.196704 9.767987 10.60337
55.39704 102.2995 312.2061 3.356032 -8.256499 8.889934 -1.066185 -18.70122 1.926883 -0 19.6805 -0 -0.8582034 -10.0302 -8.864922 -5.653284 19.66999 -10.47515 -0 22.74495 -0 -7.302798 -17.08683 13.48601 -2.759012 -0.1204795 1.718316 0.3560381 7.056651 -6.827329 2.974244 24.24145 5.064353 0.6819424 -14.72564 9.228148 -0.1910955 -11.69681 8.13772 92.49799 23.11514 -21.19549 -0 0 8.214645 -17.90232 12.49634 7.140898 6.200354 -19.83071 -4.369378 -79.54048 26.304 -1.161139 0 0 -23.47827 1.960246 10.2987 9.58253
55.81823 101.6602 318.3791 3.166989 -8.269055 9.265765 -0.3217216 -18.77809 2.211322 -0 17.28965 -0 -1.878707 -10.3862 -9.048729 -5.23591 20.54118 -10.36528 -0 26.45216 -0 -7.531737 -16.58001 13.65831 -2.568655 -0.1489136 1.553758 0.5732333 6.968315 -6.85304 3.112755 24.37649 4.796869 0.7223624 -14.94471 9.060599 -0.2416326 -11.27104 8.075913 92.85091 23.29155 -21.61228 -0 0 6.773361 -16.9606 12.21803 6.439036 6.249993 -20.05974 -4.128583 -79.41576 26.34105 -1.944908 0 0 -23.83818 2.58188 10.77992 8.780991
56.18032 101.2725 324.7093 2.923271 -8.505458 9.386726 0.6060059 -17.53341 2.704528 -0 16.37637 -0 -2.820486 -10.67137 -9.070188 -4.765118 20.29693 -10.20615 -0 31.24129 -0 -7.726531 -15.52048 14.18217 -2.30191 -0.1789743 1.49966 0.7326103 6.992259 -6.768134 3.223855 24.5765 4.528912 0.7748959 -15.17207 8.850363 -0.2239807 -11.09936 8.053523 92.97604 23.47496 -21.58029 -0 0 5.679935 -16.12483 11.91915 5.87308 6.166366 -19.97771 -3.865084 -79.82673 26.45059 -1.807259 0 0 -23.42988 3.031134 11.2068 8.233129
56.49751 101.2104 331.1312 2.679048 -8.920383 9.27155 1.558299 -15.10195 3.26385 -0 16.43611 -0 -3.667511 -10.94674 -8.9286 -4.309038 18.85064 -9.996197 -0 36.49867 -0 -7.840388 -14.1054 15.01686 -2.016695 -0.1635321 1.575709 0.8255102 7.108829 -6.572065 3.308549 24.83176 4.273654 0.8372102 -15.39305 8.6165 -0.1649443 -11.20129 8.074219 92.84661 23.66359 -21.07944 -0 0 5.012528 -15.46312 11.59739 5.502862 5.975019 -19.64284 -3.608208 -80.72552 26.60714 -0.827308 0 0 -22.29982 3.295408 11.57939 7.937897
56.78737 101.4549 337.537 2.508091 -9.435535 8.96658 2.346644 -11.67712 3.720696 -0 16.70679 -0 -4.410639 -11.31226 -8.630073 -3.952105 16.12525 -9.73913 -0 41.40201 -0 -7.814087 -12.61236 16.08781 -1.791974 -0.0470488 1.819094 0.8423704 7.283561 -6.252078 3.37005 25.11892 4.044203 0.908249 -15.59808 8.379403 -0.09745239 -11.58906 8.147658 92.43199 23.84826 -20.10115 -0 0 4.839194 -15.05407 11.24772 5.38945 5.719268 -19.14649 -3.385372 -82.03568 26.76178 0.8625872 0 0 -20.54634 3.373936 11.89891 7.873749
57.07156 101.9124 343.806 2.449512 -9.972058 8.529626 2.865405 -7.489817 3.971898 -0 16.62779 -0 -5.049738 -11.83115 -8.185711 -3.726174 12.18387 -9.456021 -0 45.25695 -0 -7.618158 -11.252 17.31017 -1.675454 0.1934246 2.239607 0.7807546 7.480648 -5.80617 3.408988 25.41089 3.852236 0.9863937 -15.78685 8.154968 -0.05091557 -12.25187 8.275563 91.73132 24.01239 -18.67136 -0 0 5.184821 -14.94611 10.8687 5.56775 5.443968 -18.56616 -3.2089 -83.66937 26.86063 3.114671 0 0 -18.29619 3.284386 12.16776 8.003859
57.37585 102.4478 349.8488 2.475564 -10.44369 8.009682 3.116847 -2.828657 3.982046 -0 16.0122 -0 -5.595851 -12.49547 -7.602832 -3.574522 7.317183 -9.186949 -0 47.47213 -0 -7.278764 -10.12742 18.58994 -1.656349 0.5237651 2.792389 0.6486599 7.660728 -5.254669 3.418334 25.67399 3.712666 1.067826 -15.97403 7.955119 -0.05693246 -13.15006 8.441925 90.78764 24.13269 -16.86094 -0 0 6.032779 -15.15519 10.46336 6.050376 5.19841 -17.94924 -3.068013 -85.52124 26.85096 5.772593 0 0 -15.70948 3.071128 12.38983 8.271832
57.72917 102.9086 355.6433 2.502946 -10.74427 7.436602 3.171029 1.956777 3.739674 -0 14.95287 -0 -6.069487 -13.23794 -6.879656 -3.374828 2.009681 -8.971712 -0 47.42938 -0 -6.867623 -9.274176 19.82185 -1.674618 0.8623532 3.384945 0.462217 7.777521 -4.636346 3.383155 25.86517 3.646654 1.146774 -16.18837 7.790905 -0.1558527 -14.22309 8.613657 89.67754 24.18364 -14.77572 -0 0 7.345861 -15.68297 10.03585 6.843553 5.040716 -17.32168 -2.933674 -87.46183 26.68621 8.668979 0 0 -12.97875 2.802352 12.57067 8.602625
58.16063 103.1455 361.2335 2.454447 -10.79168 6.829579 3.110595 6.555941 3.249355 -0 13.6685 -0 -6.491378 -13.96072 -6.017077 -3.028431 -3.251388 -8.824885 -0 44.77319 -0 -6.456009 -8.687911 20.91782 -1.666706 1.127833 3.926808 0.2399664 7.799439 -3.993258 3.292624 25.95128 3.670159 1.220161 -16.45593 7.670301 -0.3772761 -15.40522 8.756382 88.489 24.1472 -12.53493 -0 0 9.058475 -16.50946 9.587114 7.930448 5.011973 -16.69984 -2.780312 -89.36747 26.34287 11.64867 0 0 -10.2764 2.543849 12.71699 8.927375
58.69609 103.048 366.7006 2.310063 -10.57708 6.21147 2.98362 10.76197 2.550768 -0 12.45021 -0 -6.876604 -14.51929 -5.031542 -2.542874 -8.084885 -8.749013 -0 39.78386 -0 -6.079813 -8.33117 21.82114 -1.608633 1.272117 4.370372 -0.001540183 7.735627 -3.362535 3.154009 25.92807 3.782884 1.295078 -16.78658 7.596801 -0.7166419 -16.62675 8.847968 87.31785 24.01877 -10.27553 -0 0 11.04093 -17.57486 9.115002 9.240729 5.108778 -16.10346 -2.605367 -91.14163 25.82945 14.57597 0 0 -7.720104 2.342402 12.83592 9.200377
59.35648 102.5919 372.1395 2.106257 -10.1693 5.61139 2.78159 14.42471 1.732315 -0 11.72108 -0 -7.240461 -14.66839 -3.955697 -2.055117 -12.13787 -8.775946 -0 33.44844 -0 -5.74243 -8.135739 22.48589 -1.523686 1.271728 4.70835 -0.2481074 7.642725 -2.781832 2.996614 25.82032 3.969612 1.393685 -17.17612 7.572387 -1.13114 -17.79928 8.878606 86.28435 23.80891 -8.182167 -0 0 13.06914 -18.77441 8.621009 10.63811 5.281319 -15.56611 -2.431786 -92.70021 25.18212 17.31007 0 0 -5.39536 2.235632 12.93508 9.389945
60.1579 101.8582 377.6457 1.902898 -9.676489 5.057675 2.457181 17.42523 0.9094687 -0 11.93992 -0 -7.606156 -14.12532 -2.829867 -1.764346 -15.0976 -8.971085 -0 27.04598 -0 -5.43009 -8.026351 22.87539 -1.458926 1.119573 4.95376 -0.488898 7.598567 -2.286389 2.858049 25.66654 4.208727 1.54385 -17.61249 7.59791 -1.558806 -18.83032 8.850125 85.50781 23.54304 -6.450916 -0 0 14.88375 -19.9876 8.116417 11.9621 5.460478 -15.12891 -2.294446 -93.97295 24.45368 19.71821 0 0 -3.370213 2.254671 13.02189 9.472105
